<svg xmlns="http://www.w3.org/2000/svg" fill="#FFFFFF" viewBox="0 0 333333 333333" shape-rendering="geometricPrecision" text-rendering="geometricPrecision" image-rendering="optimizeQuality" fill-rule="evenodd" clip-rule="evenodd"><path d="M210139 34493c-847 0-1573-121-2300-363-3752 0-6898-3026-6898-6899V13676h-66809v13555c0 3510-2784 6536-6172 6778-726 242-1574 363-2421 363h-25174v28079h131802V34372h-22270l242 121zM93844 203545c7498 0 13576 6078 13576 13576s-6078 13576-13576 13576c-7497 0-13576-6078-13576-13576s6078-13576 13576-13576zm-15683-33468c-1877-2803-1127-6598 1676-8475s6598-1127 8475 1676l3327 4946 13211-16072c2142-2605 5990-2980 8595-838s2980 5990 838 8595l-18274 22232c-398 522-886 988-1461 1373-2803 1877-6598 1127-8475-1676l-7911-11761zm0-46984c-1877-2803-1127-6598 1676-8475s6598-1127 8475 1676l3327 4946 13211-16074c2142-2605 5990-2980 8595-838s2980 5990 838 8595l-18274 22234c-397 522-886 988-1462 1373-2803 1877-6598 1127-8475-1676l-7911-11761zm141419 208424c-1210 1089-2904 1815-4599 1815-363 0-726 0-1089-121H47112c-4115 0-7988-1694-10772-4478s-4478-6535-4478-10772V53856c0-4236 1694-7988 4478-10771 2784-2784 6535-4478 10772-4478h39698v-7504c0-2784 1089-5326 3026-7262 1815-1816 4357-3026 7261-3026h23480v-9440c0-3147 1331-5931 3389-7988 2057-2057 4841-3389 7988-3389h71529c3147 0 5931 1331 7988 3389 2057 2057 3389 4841 3389 7988v9440h21180c2784 0 5325 1210 7262 3026 1815 1815 3026 4478 3026 7262v7504h39698c4236 0 7988 1694 10772 4478 2783 2783 4478 6535 4478 10771v190519c547 2736-16 4857-2057 6898l-78791 79759c-242 242-363 363-605 484h-242zm-11498-11982c0-91204-11507-80365 79275-80365V53856c0-363-121-847-484-1089-242-242-605-484-1089-484h-39698v13798c0 2784-1089 5325-3026 7262-1816 1815-4357 3026-7262 3026H96976c-2784 0-5446-1210-7262-3026-242-242-363-484-605-726-1452-1815-2420-4115-2420-6535V52284H46991c-363 0-847 121-1089 484-242 242-484 726-484 1089v264105c0 484 121 847 484 1089 242 242 605 484 1089 484h161091zm-64378-97636c-3752 0-6899-3026-6899-6899 0-3752 3026-6899 6899-6899h65468c3752 0 6899 3026 6899 6898 0 3752-3026 6899-6899 6899h-65468zm0-98414c-3752 0-6899-3026-6899-6899 0-3752 3026-6898 6899-6898h100809c3752 0 6898 3026 6898 6898 0 3752-3026 6899-6898 6899H143704zm0 49207c-3752 0-6899-3026-6899-6899 0-3752 3026-6898 6899-6898h100809c3752 0 6898 3026 6898 6898 0 3752-3026 6899-6898 6899H143704z" fill-rule="nonzero"/> </svg>