<svg width="494" height="494" viewBox="0 0 494 494" fill="none" xmlns="http://www.w3.org/2000/svg">
<circle cx="247" cy="247" r="190" fill="#00919A" stroke="url(#paint0_linear)" stroke-width="20"/>
<circle cx="247" cy="247" r="160" fill="#323232"/>
<path d="M112.418 358.95C112.048 358.509 111.686 358.078 111.326 357.627C93.3998 335.846 81.6234 310.988 75.8108 285.181C71.3447 265.361 70.4031 244.987 72.8795 225.013C72.961 224.318 73.0588 223.62 73.1472 222.933C73.2378 222.229 73.3383 221.533 73.4448 220.848C73.5432 220.151 73.6519 219.467 73.7697 218.773C73.877 218.087 73.9954 217.394 74.1125 216.701C74.3012 215.633 74.4906 214.565 74.6982 213.498C74.7898 212.982 74.8925 212.477 74.9936 211.974C75.9208 207.362 77.0359 202.789 78.3279 198.259C78.4675 197.758 78.6157 197.247 78.7659 196.737C78.9647 196.098 79.1636 195.458 79.3549 194.809C79.6112 193.948 79.8965 193.077 80.1712 192.215C80.1972 192.142 80.2227 192.068 80.2482 191.994C80.5496 191.059 80.8691 190.127 81.188 189.193C81.5175 188.251 81.8466 187.33 82.1851 186.398C82.5229 185.466 82.8702 184.545 83.228 183.616C83.9416 181.775 84.6816 179.945 85.4537 178.111C85.8274 177.201 86.232 176.285 86.6336 175.387C87.8426 172.676 89.1262 169.971 90.473 167.302C90.9225 166.418 91.3806 165.525 91.8489 164.643C92.3149 163.78 92.7926 162.888 93.2691 162.018C93.7543 161.136 94.2392 160.274 94.7346 159.405C95.1176 158.734 95.4989 158.084 95.8796 157.432C97.0847 155.406 98.316 153.411 99.594 151.428C100.638 149.836 101.71 148.235 102.801 146.656C106.35 141.562 110.21 136.607 114.348 131.841C114.816 131.292 115.301 130.743 115.786 130.215C116.724 129.165 117.672 128.126 118.639 127.088C119.184 126.507 119.729 125.926 120.296 125.348C120.912 124.706 121.53 124.066 122.166 123.428C122.835 122.743 123.525 122.062 124.22 121.39C124.699 120.917 125.197 120.448 125.685 119.987C126.756 118.948 127.852 117.94 128.969 116.933C129.342 116.585 129.724 116.248 130.106 115.91C130.52 115.529 130.932 115.164 131.364 114.803C131.847 114.379 132.332 113.955 132.825 113.541C133.228 113.186 133.648 112.833 134.059 112.488C134.47 112.143 134.891 111.79 135.31 111.456C138.255 109.021 141.265 106.704 144.332 104.498C144.911 104.083 145.499 103.677 146.078 103.263C147.911 101.985 149.752 100.737 151.618 99.5397C164.571 91.1362 178.329 84.6494 192.527 80.0635C257.81 58.8893 332.211 77.4899 379.423 132.67C379.803 133.104 380.173 133.545 380.543 133.986C380.914 134.428 381.276 134.859 381.636 135.308C409.605 169.288 422.615 210.781 421.335 251.705C420.005 294.946 402.736 337.548 370.359 369.945C367.105 373.201 363.698 376.358 360.138 379.396C359.737 379.752 359.316 380.105 358.905 380.45C358.495 380.794 358.073 381.148 357.653 381.481L246.346 248.83L113.541 360.267C113.159 359.833 112.788 359.391 112.418 358.95Z" fill="#2A94F4"/>
<path d="M295.723 302.629C294.914 295.698 291.937 289.94 282.682 287.087C281.117 286.599 279.382 286.2 277.44 285.887L259.661 264.698C260.821 264.392 261.98 264.083 263.103 263.753C271.726 261.223 278.91 257.748 283.736 252.298C296.946 237.42 323.358 204.797 344.083 177.889C365.672 149.802 400.551 208.266 421.334 251.702C421.366 251.761 421.388 251.831 421.422 251.891C419.972 294.969 402.78 337.453 370.964 369.852L370.357 369.943L354.262 372.392L353.654 372.482C352.607 372.714 351.573 372.9 350.562 373.031L295.993 307.999C296.004 306.154 295.925 304.351 295.723 302.629Z" fill="#067231"/>
<path d="M75.6903 285.122C71.2991 265.33 70.3742 244.974 72.8784 225.013C72.9598 224.318 73.0575 223.62 73.146 222.933C73.2366 222.229 73.337 221.533 73.4436 220.848C73.542 220.151 73.6506 219.467 73.7684 218.773C73.8758 218.087 73.9942 217.394 74.1113 216.701C74.3 215.633 74.4893 214.565 74.6969 213.498C74.7886 212.982 74.8912 212.477 74.9924 211.974C75.9196 207.362 77.0347 202.789 78.3267 198.259C78.4663 197.758 78.6145 197.247 78.7647 196.737C78.9635 196.098 79.1624 195.458 79.3537 194.809C79.61 193.948 79.8952 193.077 80.17 192.215C80.196 192.142 80.2215 192.068 80.247 191.994C80.5484 191.059 80.8679 190.127 81.1868 189.193C81.5163 188.251 81.8454 187.33 82.1838 186.398C82.5216 185.466 82.8689 184.545 83.2268 183.616C83.9404 181.775 84.6804 179.945 85.4525 178.111C85.8262 177.201 86.2308 176.285 86.6323 175.387C87.8413 172.676 89.125 169.971 90.4718 167.301C90.9213 166.417 91.3794 165.525 91.8477 164.643C92.3137 163.78 92.7914 162.888 93.2679 162.018C93.7531 161.136 94.238 160.274 94.7334 159.405C95.1164 158.734 95.4977 158.084 95.8784 157.432C97.0835 155.406 98.3148 153.411 99.5928 151.428C100.637 149.836 101.708 148.235 102.8 146.656C106.348 141.562 110.208 136.607 114.347 131.841C114.815 131.292 115.3 130.743 115.784 130.215C116.723 129.165 117.671 128.126 118.637 127.088C119.183 126.507 119.728 125.926 120.294 125.348C120.911 124.706 121.529 124.066 122.165 123.428C122.834 122.743 123.523 122.062 124.219 121.39C124.698 120.917 125.196 120.448 125.684 119.987C126.755 118.948 127.851 117.94 128.968 116.933C129.341 116.585 129.723 116.248 130.104 115.91C130.519 115.529 130.931 115.164 131.362 114.803C131.846 114.379 132.331 113.955 132.824 113.541C133.226 113.186 133.647 112.833 134.058 112.488C134.469 112.143 134.89 111.79 135.309 111.456C138.253 109.021 141.264 106.704 144.331 104.498C144.91 104.083 145.498 103.677 146.077 103.263C147.909 101.985 149.751 100.737 151.617 99.5397C164.675 91.1355 178.497 84.6823 192.526 80.0635C200.786 109.765 195.873 106.749 205.149 145.586C214.878 184.986 232.209 190.893 232.376 212.639C232.182 216.789 228.988 217.613 224.591 217.858C223.301 217.927 221.91 217.938 220.46 217.982C212.135 218.198 201.932 219.012 198.462 233.484C192.378 258.567 197.817 264.464 210.205 273.575C210.768 273.453 211.338 273.34 211.91 273.229C214.207 272.754 216.527 272.328 218.839 271.912L191.004 295.268C188.845 295.594 186.687 295.9 184.558 296.18C159.498 299.627 137.635 300.793 111.481 296.01C97.2912 293.222 85.7495 289.646 75.8093 285.184C75.7736 285.158 75.7264 285.143 75.6903 285.122Z" fill="#067231"/>
<path d="M113.54 360.265L246.512 248.689L357.958 381.505C284.318 442.176 175.525 432.717 113.54 360.265Z" fill="#2A94F4"/>
<g opacity="0.2">
<path opacity="0.2" d="M122.159 353.033L246.511 248.689L350.733 372.896C281.869 429.635 180.127 420.789 122.159 353.033Z" fill="#00B2FF"/>
</g>
<path d="M234.845 268.59C235.888 266.733 235.614 264.356 234.176 262.826L221.763 249.603C220.326 248.073 218.097 247.78 216.353 248.891C214.895 249.822 201.971 258.128 197.193 263.22C187.949 273.066 190.216 291.515 190.316 292.295C190.452 293.343 190.906 294.279 191.572 294.988C192.239 295.698 193.117 296.183 194.101 296.327C194.832 296.434 212.15 298.848 221.393 289.002C226.173 283.91 233.971 270.143 234.845 268.59Z" fill="#FFBE55"/>
<path d="M205.04 211.716C204.419 211.053 203.986 210.198 203.819 209.251C203.548 207.719 204.005 206.143 205.04 205.04L223.788 185.068C225.078 183.693 227.028 183.303 228.701 184.085L257.725 197.648C259.064 198.275 260.027 199.565 260.299 201.098C260.569 202.631 260.112 204.206 259.077 205.307L240.329 225.28C239.038 226.656 237.088 227.045 235.415 226.265L206.393 212.702C205.881 212.461 205.424 212.125 205.04 211.716Z" fill="#FFBE55"/>
<path d="M269.741 280.642C269.357 280.233 269.042 279.746 268.817 279.201L256.084 248.282C255.352 246.502 255.719 244.423 257.01 243.049L275.758 223.077C276.793 221.974 278.272 221.487 279.708 221.775C281.147 222.064 282.36 223.09 282.947 224.518L295.68 255.436C296.414 257.217 296.047 259.294 294.755 260.671L276.007 280.642C274.973 281.744 273.494 282.231 272.056 281.943C271.166 281.766 270.364 281.305 269.741 280.642Z" fill="#FFBE55"/>
<path d="M308.765 216.998C303.827 222.257 296.011 229.226 287.755 236.194C277.805 244.597 267.218 253.007 260.27 258.444C256.509 261.388 253.813 263.458 252.86 264.184C252.708 264.303 252.603 264.386 252.542 264.429C250.782 265.777 248.36 265.567 246.827 263.934L220.724 236.126C219.19 234.493 218.994 231.914 220.256 230.035C220.297 229.978 220.368 229.873 220.465 229.725C221.13 228.742 223.086 225.855 225.878 221.806C230.981 214.404 238.875 203.126 246.764 192.527C253.305 183.73 259.846 175.404 264.783 170.144C273.426 160.936 283.82 154.473 293.492 149.987L327.687 186.415C323.475 196.717 317.409 207.79 308.765 216.998Z" fill="white"/>
<path d="M230.572 272.338L212.836 253.442C208.802 249.146 208.802 242.152 212.836 237.854L220.726 229.45L253.095 263.932L245.205 272.337C241.171 276.635 234.606 276.635 230.572 272.338Z" fill="#FF2929"/>
<path d="M285.102 195.352C281.071 191.058 281.071 184.071 285.102 179.776C289.133 175.482 295.692 175.482 299.723 179.776C303.755 184.071 303.755 191.059 299.724 195.353C295.692 199.646 289.133 199.646 285.102 195.352Z" fill="white"/>
<path d="M281.967 198.691C276.207 192.556 276.207 182.571 281.967 176.436C287.727 170.3 297.099 170.3 302.858 176.436C308.619 182.572 308.619 192.555 302.858 198.691C297.099 204.828 287.727 204.828 281.967 198.691ZM296.592 183.112C294.287 180.657 290.538 180.657 288.233 183.112C285.929 185.567 285.929 189.562 288.233 192.016C290.537 194.471 294.287 194.471 296.592 192.016C298.897 189.561 298.896 185.567 296.592 183.112Z" fill="#FF2929"/>
<path d="M327.687 186.414L293.492 149.987C299.013 147.422 304.293 145.503 308.88 144.083C322.462 139.883 332.815 139.049 333.248 139.012C334.533 138.915 335.792 139.416 336.704 140.382C337.61 141.353 338.08 142.693 337.989 144.062C337.955 144.525 337.175 155.55 333.228 170.021C331.896 174.908 330.095 180.533 327.687 186.414Z" fill="#0E538C"/>
<defs>
<linearGradient id="paint0_linear" x1="247" y1="47" x2="247" y2="447" gradientUnits="userSpaceOnUse">
<stop stop-color="#0029FF"/>
<stop offset="1" stop-color="#78AEFF" stop-opacity="0"/>
</linearGradient>
</defs>
</svg>
