<svg xmlns="http://www.w3.org/2000/svg" fill="#FFFFFF" viewBox="0 0 333333 333333" shape-rendering="geometricPrecision" text-rendering="geometricPrecision" image-rendering="optimizeQuality" fill-rule="evenodd" clip-rule="evenodd"><path d="M83344 187526c0-11504 9333-20835 20834-20835 11504 0 20829 9333 20829 20835 0 11504-9327 20835-20829 20835-11504 0-20834-9333-20834-20835zm124995 0c0-11504 9333-20835 20835-20835 11504 0 20836 9333 20836 20835 0 11504-9333 20835-20836 20835-11504 0-20835-9333-20835-20835zm1016 44519c5376-4226 13152-3315 17378 2061s3317 13152-2061 17378c-14937 11774-37710 19378-57978 19378-20264 0-43037-7604-57998-19378-5376-4226-6287-12002-2061-17378s12002-6287 17378-2061c8606 6774 25622 14063 42679 14063 17065 0 34086-7289 42687-14063h-24zm123980-86184c0-23026-18646-41671-41665-41671-15667 0-29293 8650-36417 21419-21413-11707-47504-19291-75934-21039l24850-55830 47576 13730c4293 12149 15852 20872 29484 20872 17250 0 31250-14002 31250-31250 0-17250-14002-31250-31250-31250-11898 0-22256 6644-27524 16443l-53021-15317c-5937-1711-12228 1207-14734 6852l-33772 75844c-27706 1963-53143 9443-74096 20915-7130-12771-20750-21419-36417-21419C18639 104160 0 122805 0 145831c0 17022 10224 31669 24846 38122-2620 7813-4024 15976-4024 24378 0 57517 65287 104159 145830 104159s145830-46642 145830-104159c0-8398-1396-16559-4024-24378 14648-6453 24846-21100 24846-38122l24 31 6-2zM281249 40411c6484 0 11738 5248 11738 11730 0 6478-5254 11730-11738 11730-6478 0-11730-5254-11730-11730 0-6484 5254-11730 11730-11730zM20845 145861c0-11478 9350-20835 20829-20835 8317 0 15484 4872 18836 11935-10902 8256-19913 17797-26580 28230-7671-3088-13085-10580-13085-19328v-2zm145830 141930c-66876 0-121102-35557-121102-79436 0-43880 54202-79443 121102-79443 66868 0 121094 35563 121094 79443s-54202 79434-121094 79434v2zm132739-122602c-6667-10458-15681-19974-26580-28230 3352-7037 10520-11935 18836-11935 11478 0 20835 9356 20835 20837 0 8748-5419 16252-13091 19328z"/></svg>